<svg width="35" height="39" viewBox="0 0 35 39" fill="none" xmlns="http://www.w3.org/2000/svg">
<g clip-path="url(#clip0_60_281)">
<path d="M29.2287 20.6302C29.2287 17.4095 30.8112 15.0592 33.883 13.2312C32.1144 10.8809 29.508 9.66225 26.0638 9.4011C22.7127 9.13994 19.0825 11.142 17.7792 11.142C16.383 11.142 13.2181 9.48812 10.7048 9.48812C5.49202 9.57522 0 13.3182 0 21.0654C0 23.3286 0.37234 25.6789 1.30319 28.1163C2.5133 31.337 6.79521 39.1712 11.2633 38.9971C13.5904 38.9971 15.266 37.4303 18.3377 37.4303C21.3165 37.4303 22.8058 38.9971 25.4123 38.9971C29.9734 38.9971 33.883 31.8592 35 28.6385C28.9494 25.9401 29.2287 20.8043 29.2287 20.6302ZM24.016 6.35444C26.5292 3.56893 26.25 0.957522 26.25 0C24.016 0.174095 21.4096 1.4798 19.9202 3.04665C18.2446 4.7876 17.3138 6.96378 17.5 9.31407C19.9202 9.48812 22.1542 8.35655 24.016 6.35444Z" fill="white"/>
</g>
<defs>
<clipPath id="clip0_60_281">
<rect width="35" height="39" fill="white"/>
</clipPath>
</defs>
</svg>
