<svg width="45" height="45" viewBox="0 0 45 45" fill="none" xmlns="http://www.w3.org/2000/svg">
<g clip-path="url(#clip0_60_299)">
<path d="M13.2139 0.478868C12.9895 0.485381 12.7762 0.577443 12.6174 0.736044L9.97697 3.37645C9.62932 3.71619 9.6228 4.27349 9.96254 4.62114C10.3023 4.9688 10.8596 4.97531 11.2072 4.63558C11.2122 4.63083 11.2171 4.6259 11.2218 4.62097L12.3595 3.4833V11.0398H10.5992C10.1132 11.0329 9.71346 11.4214 9.70659 11.9074C9.69973 12.3935 10.0882 12.7932 10.5742 12.8001C10.5825 12.8003 10.5908 12.8003 10.5991 12.8001H13.0955C13.1896 12.8156 13.2856 12.8156 13.3798 12.8001H14.9997C15.4857 12.8069 15.8855 12.4185 15.8924 11.9324C15.8992 11.4464 15.5107 11.0467 15.0247 11.0398C15.0165 11.0396 15.0082 11.0396 14.9999 11.0398H14.1198V1.3583C14.1196 0.872113 13.7253 0.47834 13.2391 0.478516C13.2308 0.478516 13.2224 0.478692 13.2139 0.478868ZM22.9206 0.478868C22.6962 0.485381 22.4828 0.577443 22.3241 0.736044L19.6837 3.37645C19.333 3.7132 19.3216 4.27032 19.6583 4.62097C19.995 4.97161 20.5522 4.98306 20.9028 4.64632C20.9114 4.63804 20.9199 4.62959 20.9282 4.62097L22.0662 3.48295V11.0398H20.3059C19.8199 11.0329 19.4201 11.4214 19.4133 11.9074C19.4064 12.3935 19.7949 12.7932 20.2809 12.8001C20.2892 12.8003 20.2975 12.8003 20.3057 12.8001H22.8022C22.8967 12.8156 22.993 12.8156 23.0875 12.8001H24.7064C25.1924 12.8069 25.5922 12.4185 25.5991 11.9324C25.6059 11.4464 25.2174 11.0467 24.7314 11.0398C24.7231 11.0396 24.7149 11.0396 24.7066 11.0398H23.8265V1.3583C23.8263 0.872113 23.432 0.47834 22.9458 0.478516C22.9375 0.478516 22.9291 0.478692 22.9206 0.478868ZM3.09307 0.484853C1.40162 0.484853 0.0125875 1.87388 0.0125875 3.56533V9.72629C0.0125875 11.4177 1.40162 12.8068 3.09307 12.8068C4.78451 12.8068 6.17355 11.4177 6.17355 9.72629V3.56533C6.17355 1.87388 4.78451 0.484853 3.09307 0.484853ZM32.2129 0.484853C30.5215 0.484853 29.1324 1.87388 29.1324 3.56533V9.72629C29.1324 11.4177 30.5215 12.8068 32.2129 12.8068C33.9044 12.8068 35.2934 11.4177 35.2934 9.72629V3.56533C35.2934 1.87388 33.9042 0.484853 32.2129 0.484853ZM41.9196 0.484853C40.2282 0.484853 38.8391 1.87388 38.8391 3.56533V9.72629C38.8391 11.4177 40.2282 12.8068 41.9196 12.8068C43.6111 12.8068 45.0001 11.4177 45.0001 9.72629V3.56533C45.0001 1.87388 43.6109 0.484853 41.9196 0.484853ZM3.09307 2.24513C3.8396 2.24513 4.41327 2.8188 4.41327 3.56533V9.72629C4.41327 10.4728 3.8396 11.0465 3.09307 11.0465C2.34653 11.0465 1.77286 10.4728 1.77286 9.72629V3.56533C1.77286 2.81862 2.34653 2.24513 3.09307 2.24513ZM32.2129 2.24513C32.9595 2.24513 33.5331 2.8188 33.5331 3.56533V9.72629C33.5331 10.4728 32.9595 11.0465 32.2129 11.0465C31.4664 11.0465 30.8927 10.4728 30.8927 9.72629V3.56533C30.8927 2.81862 31.4662 2.24513 32.2129 2.24513ZM41.9196 2.24513C42.6661 2.24513 43.2398 2.8188 43.2398 3.56533V9.72629C43.2398 10.4728 42.6661 11.0465 41.9196 11.0465C41.1731 11.0465 40.5994 10.4728 40.5994 9.72629V3.56533C40.5994 2.81862 41.1729 2.24513 41.9196 2.24513ZM3.50744 16.3338C3.283 16.3403 3.06966 16.4324 2.91088 16.591L0.270468 19.2314C-0.0731378 19.5754 -0.0726097 20.1329 0.271348 20.4763C0.614953 20.8195 1.17173 20.8195 1.51533 20.4763L2.653 19.3386V26.8951H0.892725C0.406713 26.8883 0.00695467 27.2768 8.96007e-05 27.7628C-0.00677547 28.2488 0.381717 28.6485 0.867729 28.6554C0.876002 28.6556 0.884275 28.6556 0.892549 28.6554H3.38897C3.4835 28.6709 3.57978 28.6709 3.67431 28.6554H5.29323C5.77925 28.6623 6.179 28.2738 6.18587 27.7878C6.19273 27.3017 5.80424 26.902 5.31823 26.8951C5.30996 26.8949 5.30168 26.8949 5.29341 26.8951H4.41327V17.2136C4.41327 16.7274 4.01915 16.3335 3.53296 16.3335C3.52451 16.3335 3.51589 16.3335 3.50744 16.3338ZM22.9206 16.3338C22.6962 16.3403 22.4828 16.4324 22.3241 16.591L19.6837 19.2314C19.3358 19.5712 19.3293 20.1283 19.6689 20.4761C20.0086 20.8239 20.5657 20.8305 20.9136 20.4909C20.9185 20.4861 20.9234 20.4812 20.9282 20.4763L22.0662 19.3383V26.8951H20.3059C19.8199 26.8883 19.4201 27.2768 19.4133 27.7628C19.4064 28.2488 19.7949 28.6485 20.2809 28.6554C20.2892 28.6556 20.2975 28.6556 20.3057 28.6554H22.8022C22.8967 28.6709 22.993 28.6709 23.0875 28.6554H24.7064C25.1924 28.6623 25.5922 28.2738 25.5991 27.7878C25.6059 27.3017 25.2174 26.902 24.7314 26.8951C24.7231 26.8949 24.7149 26.8949 24.7066 26.8951H23.8265V17.2136C23.8265 16.7274 23.4323 16.3335 22.9461 16.3335C22.9377 16.3335 22.9291 16.3335 22.9206 16.3338ZM32.6271 16.3338C32.4027 16.3403 32.1893 16.4324 32.0306 16.591L29.3902 19.2314C29.0423 19.5712 29.0358 20.1283 29.3754 20.4761C29.7151 20.8239 30.2722 20.8305 30.6201 20.4909C30.625 20.4861 30.6299 20.4812 30.6347 20.4763L31.7727 19.3383V26.8951H30.0124C29.5264 26.8883 29.1266 27.2768 29.1198 27.7628C29.1129 28.2488 29.5014 28.6485 29.9874 28.6554C29.9957 28.6556 30.004 28.6556 30.0122 28.6554H32.5087C32.6032 28.6709 32.6995 28.6709 32.794 28.6554H34.4129C34.8989 28.6623 35.2987 28.2738 35.3056 27.7878C35.3124 27.3017 34.9239 26.902 34.4379 26.8951C34.4296 26.8949 34.4214 26.8949 34.4131 26.8951H33.533V17.2136C33.533 16.7274 33.1388 16.3335 32.6526 16.3335C32.6444 16.3335 32.6357 16.3335 32.6271 16.3338ZM12.7997 16.3396C11.1083 16.3396 9.71927 17.7287 9.71927 19.4201V25.5811C9.71927 27.2725 11.1083 28.6616 12.7997 28.6616C14.4912 28.6616 15.8802 27.2725 15.8802 25.5811V19.4201C15.8802 17.7287 14.491 16.3396 12.7997 16.3396ZM41.9196 16.3396C40.2282 16.3396 38.8391 17.7287 38.8391 19.4201V25.5811C38.8391 27.2725 40.2282 28.6616 41.9196 28.6616C43.6111 28.6616 45.0001 27.2725 45.0001 25.5811V19.4201C45.0001 17.7287 43.6109 16.3396 41.9196 16.3396ZM12.7997 18.0999C13.5463 18.0999 14.12 18.6736 14.12 19.4201V25.5811C14.12 26.3276 13.5463 26.9013 12.7997 26.9013C12.0532 26.9013 11.4795 26.3276 11.4795 25.5811V19.4201C11.4795 18.6734 12.053 18.0999 12.7997 18.0999ZM41.9196 18.0999C42.6661 18.0999 43.2398 18.6736 43.2398 19.4201V25.5811C43.2398 26.3276 42.6661 26.9013 41.9196 26.9013C41.1731 26.9013 40.5994 26.3276 40.5994 25.5811V19.4201C40.5994 18.6734 41.1729 18.0999 41.9196 18.0999ZM3.50744 32.1886C3.283 32.1951 3.06966 32.2872 2.91088 32.4458L0.270468 35.0862C-0.0733138 35.43 -0.0733138 35.9873 0.270468 36.3311C0.614249 36.6749 1.17155 36.6749 1.51533 36.3311L2.653 35.1934V42.7496H0.892725C0.406713 42.7427 0.00695467 43.1312 8.96007e-05 43.6172C-0.00677547 44.1032 0.381717 44.503 0.867729 44.5098C0.876002 44.51 0.884275 44.51 0.892549 44.5098H3.38897C3.4835 44.5253 3.57978 44.5253 3.67431 44.5098H5.29323C5.77925 44.5167 6.179 44.1282 6.18587 43.6422C6.19273 43.1562 5.80424 42.7564 5.31823 42.7496C5.30996 42.7494 5.30168 42.7494 5.29341 42.7496H4.41327V33.0681C4.4131 32.5819 4.0188 32.1881 3.53261 32.1883C3.52433 32.1883 3.51589 32.1884 3.50744 32.1886ZM13.2139 32.1886C12.9895 32.1951 12.7762 32.2872 12.6174 32.4458L9.97697 35.0862C9.63319 35.43 9.63319 35.9873 9.97697 36.3311C10.3208 36.6749 10.8781 36.6749 11.2218 36.3311L12.3595 35.1934V42.7496H10.5992C10.1132 42.7427 9.71346 43.1312 9.70659 43.6172C9.69973 44.1032 10.0882 44.503 10.5742 44.5098C10.5825 44.51 10.5908 44.51 10.5991 44.5098H13.0955C13.1896 44.5253 13.2856 44.5253 13.3798 44.5098H14.9997C15.4857 44.5167 15.8855 44.1282 15.8924 43.6422C15.8992 43.1562 15.5107 42.7564 15.0247 42.7496C15.0165 42.7494 15.0082 42.7494 14.9999 42.7496H14.1198V33.0681C14.1196 32.5819 13.7253 32.1881 13.2391 32.1883C13.2308 32.1883 13.2224 32.1884 13.2139 32.1886ZM22.9206 32.1886C22.6962 32.1951 22.4828 32.2872 22.3241 32.4458L19.6837 35.0862C19.3358 35.4259 19.3293 35.9831 19.6689 36.3309C20.0086 36.6787 20.5657 36.6852 20.9136 36.3457C20.9185 36.3409 20.9234 36.336 20.9282 36.3311L22.0662 35.1931V42.7496H20.3059C19.8199 42.7427 19.4201 43.1312 19.4133 43.6172C19.4064 44.1032 19.7949 44.503 20.2809 44.5098C20.2892 44.51 20.2975 44.51 20.3057 44.5098H22.8022C22.8967 44.5253 22.993 44.5253 23.0875 44.5098H24.7064C25.1924 44.5167 25.5922 44.1282 25.5991 43.6422C25.6059 43.1562 25.2174 42.7564 24.7314 42.7496C24.7231 42.7494 24.7149 42.7494 24.7066 42.7496H23.8265V33.0681C23.8263 32.5819 23.432 32.1881 22.9458 32.1883C22.9375 32.1883 22.9291 32.1884 22.9206 32.1886ZM32.6271 32.1886C32.4027 32.1951 32.1893 32.2872 32.0306 32.4458L29.3902 35.0862C29.0423 35.4259 29.0358 35.9831 29.3754 36.3309C29.7151 36.6787 30.2722 36.6852 30.6201 36.3457C30.625 36.3409 30.6299 36.336 30.6347 36.3311L31.7727 35.1931V42.7496H30.0124C29.5264 42.7427 29.1266 43.1312 29.1198 43.6172C29.1129 44.1032 29.5014 44.503 29.9874 44.5098C29.9957 44.51 30.004 44.51 30.0122 44.5098H32.5087C32.6032 44.5253 32.6995 44.5253 32.794 44.5098H34.4129C34.8989 44.5167 35.2987 44.1282 35.3056 43.6422C35.3124 43.1562 34.9239 42.7564 34.4379 42.7496C34.4296 42.7494 34.4214 42.7494 34.4131 42.7496H33.533V33.0681C33.5328 32.5819 33.1385 32.1881 32.6523 32.1883C32.644 32.1883 32.6356 32.1884 32.6271 32.1886ZM41.9196 32.1944C40.2282 32.1944 38.8391 33.5835 38.8391 35.2749V41.4359C38.8391 43.1273 40.2282 44.5163 41.9196 44.5163C43.6111 44.5163 45.0001 43.1273 45.0001 41.4359V35.2749C45.0001 33.5836 43.6109 32.1944 41.9196 32.1944ZM41.9196 33.9547C42.6661 33.9547 43.2398 34.5284 43.2398 35.2749V41.4359C43.2398 42.1824 42.6661 42.7561 41.9196 42.7561C41.1731 42.7561 40.5994 42.1824 40.5994 41.4359V35.2749C40.5994 34.5284 41.1729 33.9547 41.9196 33.9547Z" fill="white"/>
</g>
<defs>
<clipPath id="clip0_60_299">
<rect width="45" height="45" fill="white"/>
</clipPath>
</defs>
</svg>
