<svg width="45" height="45" viewBox="0 0 45 45" fill="none" xmlns="http://www.w3.org/2000/svg">
<g clip-path="url(#clip0_60_295)">
<path d="M39.708 22.5C39.708 21.5724 39.6311 20.6627 39.4855 19.7756L45 15.8724L39.5792 6.62769L33.3873 9.37914C31.9627 8.23173 30.3477 7.30538 28.5963 6.65183L27.9208 0H17.0792L16.4037 6.65173C14.6522 7.30529 13.0372 8.23164 11.6126 9.37904L5.42077 6.6276L0 15.8724L5.51452 19.7756C5.36885 20.6627 5.29202 21.5724 5.29202 22.5C5.29202 23.4276 5.36894 24.3373 5.51452 25.2244L0 29.1276L5.42077 38.3723L11.6127 35.6209C13.0373 36.7683 14.6523 37.6946 16.4037 38.3482L17.0792 45H27.9207L28.5963 38.3483C30.3477 37.6947 31.9627 36.7684 33.3873 35.621L39.5792 38.3724L45 29.1276L39.4855 25.2244C39.6312 24.3373 39.708 23.4276 39.708 22.5ZM12.1375 25.2694L8.45183 22.1957L10.2942 19.9863L11.5709 21.0511C12.1907 16.3341 15.9112 12.4716 20.5863 11.6473C24.335 10.9862 28.1024 12.2758 30.6643 15.0963L28.5349 17.0306C26.6409 14.9453 23.8561 13.9922 21.0859 14.4803C17.5519 15.1034 14.7702 18.0716 14.3996 21.6488L16.3638 20.4382L17.8732 22.8872L13.8134 25.3893C13.5809 25.5325 12.8682 25.8519 12.1375 25.2694ZM34.7057 25.0137L33.4291 23.949C32.8093 28.6659 29.0888 32.5285 24.4137 33.3527C20.5262 34.0382 16.4678 32.5298 13.9675 29.4768L16.1931 27.6541C18.059 29.9324 21.0176 31.0304 23.9141 30.5197C27.4481 29.8966 30.2298 26.9283 30.6005 23.3512L28.6362 24.5618L27.1268 22.1128L31.1865 19.6107C31.713 19.2865 32.3875 19.3345 32.8625 19.7305L36.5482 22.8042L34.7057 25.0137Z" fill="white"/>
</g>
<defs>
<clipPath id="clip0_60_295">
<rect width="45" height="45" fill="white"/>
</clipPath>
</defs>
</svg>
