<svg width="53" height="53" viewBox="0 0 53 53" fill="none" xmlns="http://www.w3.org/2000/svg">
<g clip-path="url(#clip0_60_289)">
<path d="M48.1901 0.033125C48.1349 0.0287083 48.0885 0 48.0311 0H24.2915C20.6389 0 17.6665 2.97242 17.6665 6.625V8.83333C17.6665 10.0523 18.6558 11.0417 19.8748 11.0417C21.0938 11.0417 22.0832 10.0523 22.0832 8.83333V6.625C22.0832 5.40821 23.0747 4.41667 24.2915 4.41667H34.5801L33.9066 4.64192C32.1178 5.26025 30.9165 6.94521 30.9165 8.83333V41.9583H24.2915C23.0747 41.9583 22.0832 40.9668 22.0832 39.75V35.3333C22.0832 34.1143 21.0938 33.125 19.8748 33.125C18.6558 33.125 17.6665 34.1143 17.6665 35.3333V39.75C17.6665 43.4026 20.6389 46.375 24.2915 46.375H30.9165V48.5833C30.9165 51.0191 32.8974 53 35.3332 53C35.8058 53 36.254 52.9315 36.7399 52.7814L50.0075 48.3581C51.7985 47.7397 52.9998 46.0548 52.9998 44.1667V4.41667C52.9998 1.84175 50.7805 -0.176667 48.1901 0.033125Z" fill="white"/>
<path d="M23.6446 20.5221L14.8113 11.6887C14.1797 11.0571 13.2301 10.8672 12.4042 11.2095C11.5805 11.5518 11.0417 12.3578 11.0417 13.25V19.875H2.20833C0.989333 19.875 0 20.8643 0 22.0833C0 23.3023 0.989333 24.2917 2.20833 24.2917H11.0417V30.9167C11.0417 31.8088 11.5805 32.6149 12.4042 32.9572C13.2301 33.2995 14.1797 33.1096 14.8113 32.478L23.6446 23.6446C24.5081 22.7812 24.5081 21.3855 23.6446 20.5221Z" fill="white"/>
</g>
<defs>
<clipPath id="clip0_60_289">
<rect width="53" height="53" fill="white"/>
</clipPath>
</defs>
</svg>
