<svg width="45" height="45" viewBox="0 0 45 45" fill="none" xmlns="http://www.w3.org/2000/svg">
<g clip-path="url(#clip0_60_304)">
<path d="M4.04541 23.8184H1.3208C0.5921 23.8184 0.00244141 24.408 0.00244141 25.1367V43.6816C0.00244141 44.4103 0.5921 45 1.3208 45H4.04541C6.22633 45 8.00049 43.2258 8.00049 41.0449V27.7734C8.00049 25.5925 6.22633 23.8184 4.04541 23.8184Z" fill="white"/>
<path d="M22.5024 0C14.5061 0 8.00049 6.59347 8.00049 14.5898C8.00049 17.3168 8.76057 19.9388 10.1585 22.1991C11.9296 21.2106 13.8971 20.6641 15.939 20.6641C18.7427 20.6641 21.5756 21.6451 23.9792 23.8184H30.5005C31.4546 23.8184 32.3335 24.1016 33.1064 24.5464C35.5697 21.9461 37.0923 18.446 37.0923 14.5898C37.0923 6.59347 30.4988 0 22.5024 0ZM22.5025 10.6348C24.6834 10.6348 26.4576 12.4089 26.4576 14.5898C26.4576 16.1824 25.5101 17.6128 24.0436 18.2333C23.9707 18.2643 23.8947 18.2763 23.8209 18.3025V19.8633C23.8209 20.592 23.2312 21.1816 22.5025 21.1816C21.7738 21.1816 21.1842 20.592 21.1842 19.8633V18.3061C20.5 18.0758 19.8367 17.6896 19.2414 17.1133C18.7188 16.6073 18.7058 15.773 19.2131 15.249C19.7191 14.7263 20.5559 14.7147 21.0774 15.2207C21.7172 15.84 22.424 16.055 23.015 15.8052C23.5042 15.5979 23.821 15.1216 23.821 14.5898C23.821 13.8625 23.23 13.2715 22.5026 13.2715C20.3217 13.2715 18.5475 11.4973 18.5475 9.31641C18.5474 7.6594 19.5928 6.16597 21.1494 5.59951C21.1608 5.59529 21.1727 5.59723 21.1842 5.59327V3.95508C21.1842 3.22638 21.7738 2.63672 22.5025 2.63672C23.2312 2.63672 23.8209 3.22638 23.8209 3.95508V5.57798C24.6902 5.87092 25.5203 6.4517 26.2323 7.30028C26.701 7.85777 26.6289 8.68948 26.0701 9.1568C25.5139 9.62675 24.6797 9.55459 24.2136 8.99455C23.5158 8.16539 22.7291 7.83193 22.0519 8.07662C21.5331 8.26585 21.1842 8.7641 21.1842 9.31641C21.1842 10.0438 21.7751 10.6348 22.5025 10.6348Z" fill="white"/>
<path d="M43.9215 24.3193C42.8403 23.5283 41.3374 23.6865 40.441 24.6621L33.3219 33.5215C32.8209 34.0488 31.8717 34.3652 31.3707 34.3652H22.5024C21.7641 34.3652 21.1841 33.7852 21.1841 33.0469C21.1841 32.3085 21.7641 31.7285 22.5024 31.7285C28.4087 31.7285 23.9351 31.7285 30.5005 31.7285C31.9507 31.7285 33.1372 30.542 33.1372 29.0918C33.1372 27.6416 31.9507 26.4551 30.5005 26.4551C24.3089 26.4551 30.127 26.4551 23.5044 26.4551C22.8473 26.4551 22.5197 26.0384 22.0015 25.5849C21.2104 24.873 20.314 24.3457 19.3911 23.9765C16.5339 22.8097 13.2324 23.1628 10.6372 24.9675C10.6372 29.768 10.6372 36.9211 10.6372 42.3632H30.5005C32.979 42.3632 35.3521 41.0888 36.8287 39.1112L44.4751 28.037C45.3453 26.8769 45.1079 25.1894 43.9215 24.3193Z" fill="white"/>
</g>
<defs>
<clipPath id="clip0_60_304">
<rect width="45" height="45" fill="white"/>
</clipPath>
</defs>
</svg>
