<svg width="27" height="27" viewBox="0 0 27 27" fill="none" xmlns="http://www.w3.org/2000/svg">
<g clip-path="url(#clip0_60_349)">
<path d="M5.38745 1.03857H21.6128C24.5875 1.03857 27.0213 3.53088 27.0213 6.57704C27.0213 8.93088 25.6691 10.8693 23.641 11.7001V6.57704C23.641 6.02319 23.3706 5.46934 23.1001 5.05396C22.8297 4.63857 22.1537 4.50011 21.6128 4.50011H5.38745C4.84661 4.50011 4.30577 4.77704 3.90013 5.05396C3.4945 5.33088 3.35929 6.02319 3.35929 6.57704V11.7001C1.33112 10.8693 -0.0209961 8.93088 -0.0209961 6.57704C-0.0209961 3.53088 2.41281 1.03857 5.38745 1.03857Z" fill="white"/>
<path fill-rule="evenodd" clip-rule="evenodd" d="M21.6128 6.57715V23.1925C21.6128 24.7156 20.3959 25.9618 18.9086 25.9618H8.09168C6.60435 25.9618 5.38745 24.7156 5.38745 23.1925V6.57715H21.6128ZM11.472 16.9618L12.4184 17.931V12.1156C12.4184 11.5618 12.8241 11.0079 13.5001 11.0079C14.1762 11.0079 14.5818 11.4233 14.5818 12.1156V17.931L15.5283 16.9618C15.9339 16.5464 16.61 16.5464 17.0156 16.9618C17.4213 17.3771 17.4213 18.0695 17.0156 18.4848L15.2579 20.2848C14.3114 21.2541 12.8241 21.2541 11.8776 20.2848L10.1198 18.4848C9.71421 18.0695 9.71421 17.3771 10.1198 16.9618C10.5255 16.5464 11.0663 16.5464 11.472 16.9618Z" fill="white"/>
</g>
<defs>
<clipPath id="clip0_60_349">
<rect width="27" height="27" fill="white"/>
</clipPath>
</defs>
</svg>
