<svg width="27" height="27" viewBox="0 0 27 27" fill="none" xmlns="http://www.w3.org/2000/svg">
<g clip-path="url(#clip0_60_353)">
<path d="M5.38745 25.9614H21.6128C24.5875 25.9614 27.0213 23.4691 27.0213 20.423C27.0213 18.0691 25.6691 16.1307 23.641 15.2999V20.423C23.641 20.9768 23.3706 21.5307 23.1001 21.946C22.8297 22.3614 22.1537 22.4999 21.6128 22.4999H5.38745C4.84661 22.4999 4.30577 22.223 3.90013 21.946C3.4945 21.6691 3.35929 20.9768 3.35929 20.423V15.2999C1.33112 16.1307 -0.0209961 18.0691 -0.0209961 20.423C-0.0209961 23.4691 2.41281 25.9614 5.38745 25.9614Z" fill="white"/>
<path fill-rule="evenodd" clip-rule="evenodd" d="M21.613 20.4229V3.80746C21.613 2.28439 20.3961 1.03823 18.9088 1.03823H8.09192C6.6046 1.03823 5.3877 2.28439 5.3877 3.80746V20.4229H21.613ZM11.4722 10.0382L12.4187 9.069V14.8844C12.4187 15.4382 12.8243 15.9921 13.5004 15.9921C14.1764 15.9921 14.5821 15.5767 14.5821 14.8844V9.069L15.5285 10.0382C15.9342 10.4536 16.6102 10.4536 17.0159 10.0382C17.4215 9.62285 17.4215 8.93054 17.0159 8.51516L15.2581 6.71516C14.3116 5.74593 12.8243 5.74593 11.8778 6.71516L10.1201 8.51516C9.71446 8.93054 9.71446 9.62285 10.1201 10.0382C10.5257 10.4536 11.0666 10.4536 11.4722 10.0382Z" fill="white"/>
</g>
<defs>
<clipPath id="clip0_60_353">
<rect width="27" height="27" fill="white" transform="matrix(1 0 0 -1 0 27)"/>
</clipPath>
</defs>
</svg>
